<svg xmlns="http://www.w3.org/2000/svg" viewBox="0 0 1400 420" role="img" aria-label="Iskra README banner">
  <rect width="1400" height="420" fill="#FFFFFF"/>
  <g transform="translate(95 58) scale(0.295)">
    <g id="mark">
      <defs><clipPath id="clip-hex-local"><path d="M 453.12 108.01 Q 512.00 74.00 570.88 108.01 L 801.12 240.99 Q 860.00 275.00 860.00 343.00 L 860.00 681.00 Q 860.00 749.00 801.12 783.01 L 570.88 915.99 Q 512.00 950.00 453.12 915.99 L 222.88 783.01 Q 164.00 749.00 164.00 681.00 L 164.00 343.00 Q 164.00 275.00 222.88 240.99 Z"/></clipPath></defs>
      <g clip-path="url(#clip-hex-local)">
        <rect x="0" y="0" width="512" height="1024" fill="#007FFF"/>
        <rect x="512" y="0" width="512" height="1024" fill="#FFED00"/>
      </g>
      <path d="M 512 224 C 546 363 630 442 792 512 C 630 582 546 661 512 800 C 478 661 394 582 232 512 C 394 442 478 363 512 224 Z" fill="#FFFFFF"/>
    </g>
  </g>
  <text x="480" y="142" font-family="Inter Display, Lato, Inter, Segoe UI, Arial, sans-serif" font-size="86" font-weight="900" letter-spacing="16" fill="#05070A">ISKRA</text>
  <text x="485" y="207" font-family="Inter Display, Lato, Inter, Segoe UI, Arial, sans-serif" font-size="31" font-weight="800" letter-spacing="6" fill="#007FFF">PLUG IN · FLASH · DONE</text>
  <text x="485" y="257" font-family="Inter Display, Lato, Inter, Segoe UI, Arial, sans-serif" font-size="25" fill="#4B5565">Simple production flashing for real embedded devices.</text>
  <g transform="translate(485,308)">
    <rect width="540" height="72" rx="18" fill="#FFFFFF" stroke="#D7E2F0" stroke-width="2"/>
    <circle cx="36" cy="36" r="9" fill="#24C26A"/>
    <text x="61" y="44" font-family="Inter Display, Lato, Inter, Segoe UI, Arial, sans-serif" font-size="26" fill="#05070A">Device ready · Firmware verified</text>
  </g>
</svg>