<svg xmlns="http://www.w3.org/2000/svg" viewBox="0 0 1280 640" role="img" aria-label="Iskra GitHub social preview">
  <rect width="1280" height="640" fill="#FFFFFF"/>
  <g id="pattern"><path d="M 111.33 24.98 Q 120.00 20.00 128.67 24.98 L 191.33 61.02 Q 200.00 66.00 200.00 76.00 L 200.00 148.00 Q 200.00 158.00 191.33 162.98 L 128.67 199.02 Q 120.00 204.00 111.33 199.02 L 48.67 162.98 Q 40.00 158.00 40.00 148.00 L 40.00 76.00 Q 40.00 66.00 48.67 61.02 Z" fill="none" stroke="#E5EEF9" stroke-width="2" opacity="0.45"/>
<path d="M 111.33 194.98 Q 120.00 190.00 128.67 194.98 L 191.33 231.02 Q 200.00 236.00 200.00 246.00 L 200.00 318.00 Q 200.00 328.00 191.33 332.98 L 128.67 369.02 Q 120.00 374.00 111.33 369.02 L 48.67 332.98 Q 40.00 328.00 40.00 318.00 L 40.00 246.00 Q 40.00 236.00 48.67 231.02 Z" fill="none" stroke="#E5EEF9" stroke-width="2" opacity="0.45"/>
<path d="M 111.33 364.98 Q 120.00 360.00 128.67 364.98 L 191.33 401.02 Q 200.00 406.00 200.00 416.00 L 200.00 488.00 Q 200.00 498.00 191.33 502.98 L 128.67 539.02 Q 120.00 544.00 111.33 539.02 L 48.67 502.98 Q 40.00 498.00 40.00 488.00 L 40.00 416.00 Q 40.00 406.00 48.67 401.02 Z" fill="none" stroke="#E5EEF9" stroke-width="2" opacity="0.45"/>
<path d="M 111.33 534.98 Q 120.00 530.00 128.67 534.98 L 191.33 571.02 Q 200.00 576.00 200.00 586.00 L 200.00 658.00 Q 200.00 668.00 191.33 672.98 L 128.67 709.02 Q 120.00 714.00 111.33 709.02 L 48.67 672.98 Q 40.00 668.00 40.00 658.00 L 40.00 586.00 Q 40.00 576.00 48.67 571.02 Z" fill="none" stroke="#E5EEF9" stroke-width="2" opacity="0.45"/>
<path d="M 301.33 24.98 Q 310.00 20.00 318.67 24.98 L 381.33 61.02 Q 390.00 66.00 390.00 76.00 L 390.00 148.00 Q 390.00 158.00 381.33 162.98 L 318.67 199.02 Q 310.00 204.00 301.33 199.02 L 238.67 162.98 Q 230.00 158.00 230.00 148.00 L 230.00 76.00 Q 230.00 66.00 238.67 61.02 Z" fill="none" stroke="#E5EEF9" stroke-width="2" opacity="0.45"/>
<path d="M 301.33 194.98 Q 310.00 190.00 318.67 194.98 L 381.33 231.02 Q 390.00 236.00 390.00 246.00 L 390.00 318.00 Q 390.00 328.00 381.33 332.98 L 318.67 369.02 Q 310.00 374.00 301.33 369.02 L 238.67 332.98 Q 230.00 328.00 230.00 318.00 L 230.00 246.00 Q 230.00 236.00 238.67 231.02 Z" fill="none" stroke="#E5EEF9" stroke-width="2" opacity="0.45"/>
<path d="M 301.33 364.98 Q 310.00 360.00 318.67 364.98 L 381.33 401.02 Q 390.00 406.00 390.00 416.00 L 390.00 488.00 Q 390.00 498.00 381.33 502.98 L 318.67 539.02 Q 310.00 544.00 301.33 539.02 L 238.67 502.98 Q 230.00 498.00 230.00 488.00 L 230.00 416.00 Q 230.00 406.00 238.67 401.02 Z" fill="none" stroke="#E5EEF9" stroke-width="2" opacity="0.45"/>
<path d="M 301.33 534.98 Q 310.00 530.00 318.67 534.98 L 381.33 571.02 Q 390.00 576.00 390.00 586.00 L 390.00 658.00 Q 390.00 668.00 381.33 672.98 L 318.67 709.02 Q 310.00 714.00 301.33 709.02 L 238.67 672.98 Q 230.00 668.00 230.00 658.00 L 230.00 586.00 Q 230.00 576.00 238.67 571.02 Z" fill="none" stroke="#E5EEF9" stroke-width="2" opacity="0.45"/>
<path d="M 491.33 24.98 Q 500.00 20.00 508.67 24.98 L 571.33 61.02 Q 580.00 66.00 580.00 76.00 L 580.00 148.00 Q 580.00 158.00 571.33 162.98 L 508.67 199.02 Q 500.00 204.00 491.33 199.02 L 428.67 162.98 Q 420.00 158.00 420.00 148.00 L 420.00 76.00 Q 420.00 66.00 428.67 61.02 Z" fill="none" stroke="#E5EEF9" stroke-width="2" opacity="0.45"/>
<path d="M 491.33 194.98 Q 500.00 190.00 508.67 194.98 L 571.33 231.02 Q 580.00 236.00 580.00 246.00 L 580.00 318.00 Q 580.00 328.00 571.33 332.98 L 508.67 369.02 Q 500.00 374.00 491.33 369.02 L 428.67 332.98 Q 420.00 328.00 420.00 318.00 L 420.00 246.00 Q 420.00 236.00 428.67 231.02 Z" fill="none" stroke="#E5EEF9" stroke-width="2" opacity="0.45"/>
<path d="M 491.33 364.98 Q 500.00 360.00 508.67 364.98 L 571.33 401.02 Q 580.00 406.00 580.00 416.00 L 580.00 488.00 Q 580.00 498.00 571.33 502.98 L 508.67 539.02 Q 500.00 544.00 491.33 539.02 L 428.67 502.98 Q 420.00 498.00 420.00 488.00 L 420.00 416.00 Q 420.00 406.00 428.67 401.02 Z" fill="none" stroke="#E5EEF9" stroke-width="2" opacity="0.45"/>
<path d="M 491.33 534.98 Q 500.00 530.00 508.67 534.98 L 571.33 571.02 Q 580.00 576.00 580.00 586.00 L 580.00 658.00 Q 580.00 668.00 571.33 672.98 L 508.67 709.02 Q 500.00 714.00 491.33 709.02 L 428.67 672.98 Q 420.00 668.00 420.00 658.00 L 420.00 586.00 Q 420.00 576.00 428.67 571.02 Z" fill="none" stroke="#E5EEF9" stroke-width="2" opacity="0.45"/>
<path d="M 681.33 24.98 Q 690.00 20.00 698.67 24.98 L 761.33 61.02 Q 770.00 66.00 770.00 76.00 L 770.00 148.00 Q 770.00 158.00 761.33 162.98 L 698.67 199.02 Q 690.00 204.00 681.33 199.02 L 618.67 162.98 Q 610.00 158.00 610.00 148.00 L 610.00 76.00 Q 610.00 66.00 618.67 61.02 Z" fill="none" stroke="#E5EEF9" stroke-width="2" opacity="0.45"/>
<path d="M 681.33 194.98 Q 690.00 190.00 698.67 194.98 L 761.33 231.02 Q 770.00 236.00 770.00 246.00 L 770.00 318.00 Q 770.00 328.00 761.33 332.98 L 698.67 369.02 Q 690.00 374.00 681.33 369.02 L 618.67 332.98 Q 610.00 328.00 610.00 318.00 L 610.00 246.00 Q 610.00 236.00 618.67 231.02 Z" fill="none" stroke="#E5EEF9" stroke-width="2" opacity="0.45"/>
<path d="M 681.33 364.98 Q 690.00 360.00 698.67 364.98 L 761.33 401.02 Q 770.00 406.00 770.00 416.00 L 770.00 488.00 Q 770.00 498.00 761.33 502.98 L 698.67 539.02 Q 690.00 544.00 681.33 539.02 L 618.67 502.98 Q 610.00 498.00 610.00 488.00 L 610.00 416.00 Q 610.00 406.00 618.67 401.02 Z" fill="none" stroke="#E5EEF9" stroke-width="2" opacity="0.45"/>
<path d="M 681.33 534.98 Q 690.00 530.00 698.67 534.98 L 761.33 571.02 Q 770.00 576.00 770.00 586.00 L 770.00 658.00 Q 770.00 668.00 761.33 672.98 L 698.67 709.02 Q 690.00 714.00 681.33 709.02 L 618.67 672.98 Q 610.00 668.00 610.00 658.00 L 610.00 586.00 Q 610.00 576.00 618.67 571.02 Z" fill="none" stroke="#E5EEF9" stroke-width="2" opacity="0.45"/>
<path d="M 871.33 24.98 Q 880.00 20.00 888.67 24.98 L 951.33 61.02 Q 960.00 66.00 960.00 76.00 L 960.00 148.00 Q 960.00 158.00 951.33 162.98 L 888.67 199.02 Q 880.00 204.00 871.33 199.02 L 808.67 162.98 Q 800.00 158.00 800.00 148.00 L 800.00 76.00 Q 800.00 66.00 808.67 61.02 Z" fill="none" stroke="#E5EEF9" stroke-width="2" opacity="0.45"/>
<path d="M 871.33 194.98 Q 880.00 190.00 888.67 194.98 L 951.33 231.02 Q 960.00 236.00 960.00 246.00 L 960.00 318.00 Q 960.00 328.00 951.33 332.98 L 888.67 369.02 Q 880.00 374.00 871.33 369.02 L 808.67 332.98 Q 800.00 328.00 800.00 318.00 L 800.00 246.00 Q 800.00 236.00 808.67 231.02 Z" fill="none" stroke="#E5EEF9" stroke-width="2" opacity="0.45"/>
<path d="M 871.33 364.98 Q 880.00 360.00 888.67 364.98 L 951.33 401.02 Q 960.00 406.00 960.00 416.00 L 960.00 488.00 Q 960.00 498.00 951.33 502.98 L 888.67 539.02 Q 880.00 544.00 871.33 539.02 L 808.67 502.98 Q 800.00 498.00 800.00 488.00 L 800.00 416.00 Q 800.00 406.00 808.67 401.02 Z" fill="none" stroke="#E5EEF9" stroke-width="2" opacity="0.45"/>
<path d="M 871.33 534.98 Q 880.00 530.00 888.67 534.98 L 951.33 571.02 Q 960.00 576.00 960.00 586.00 L 960.00 658.00 Q 960.00 668.00 951.33 672.98 L 888.67 709.02 Q 880.00 714.00 871.33 709.02 L 808.67 672.98 Q 800.00 668.00 800.00 658.00 L 800.00 586.00 Q 800.00 576.00 808.67 571.02 Z" fill="none" stroke="#E5EEF9" stroke-width="2" opacity="0.45"/>
<path d="M 1061.33 24.98 Q 1070.00 20.00 1078.67 24.98 L 1141.33 61.02 Q 1150.00 66.00 1150.00 76.00 L 1150.00 148.00 Q 1150.00 158.00 1141.33 162.98 L 1078.67 199.02 Q 1070.00 204.00 1061.33 199.02 L 998.67 162.98 Q 990.00 158.00 990.00 148.00 L 990.00 76.00 Q 990.00 66.00 998.67 61.02 Z" fill="none" stroke="#E5EEF9" stroke-width="2" opacity="0.45"/>
<path d="M 1061.33 194.98 Q 1070.00 190.00 1078.67 194.98 L 1141.33 231.02 Q 1150.00 236.00 1150.00 246.00 L 1150.00 318.00 Q 1150.00 328.00 1141.33 332.98 L 1078.67 369.02 Q 1070.00 374.00 1061.33 369.02 L 998.67 332.98 Q 990.00 328.00 990.00 318.00 L 990.00 246.00 Q 990.00 236.00 998.67 231.02 Z" fill="none" stroke="#E5EEF9" stroke-width="2" opacity="0.45"/>
<path d="M 1061.33 364.98 Q 1070.00 360.00 1078.67 364.98 L 1141.33 401.02 Q 1150.00 406.00 1150.00 416.00 L 1150.00 488.00 Q 1150.00 498.00 1141.33 502.98 L 1078.67 539.02 Q 1070.00 544.00 1061.33 539.02 L 998.67 502.98 Q 990.00 498.00 990.00 488.00 L 990.00 416.00 Q 990.00 406.00 998.67 401.02 Z" fill="none" stroke="#E5EEF9" stroke-width="2" opacity="0.45"/>
<path d="M 1061.33 534.98 Q 1070.00 530.00 1078.67 534.98 L 1141.33 571.02 Q 1150.00 576.00 1150.00 586.00 L 1150.00 658.00 Q 1150.00 668.00 1141.33 672.98 L 1078.67 709.02 Q 1070.00 714.00 1061.33 709.02 L 998.67 672.98 Q 990.00 668.00 990.00 658.00 L 990.00 586.00 Q 990.00 576.00 998.67 571.02 Z" fill="none" stroke="#E5EEF9" stroke-width="2" opacity="0.45"/>
<path d="M 1251.33 24.98 Q 1260.00 20.00 1268.67 24.98 L 1331.33 61.02 Q 1340.00 66.00 1340.00 76.00 L 1340.00 148.00 Q 1340.00 158.00 1331.33 162.98 L 1268.67 199.02 Q 1260.00 204.00 1251.33 199.02 L 1188.67 162.98 Q 1180.00 158.00 1180.00 148.00 L 1180.00 76.00 Q 1180.00 66.00 1188.67 61.02 Z" fill="none" stroke="#E5EEF9" stroke-width="2" opacity="0.45"/>
<path d="M 1251.33 194.98 Q 1260.00 190.00 1268.67 194.98 L 1331.33 231.02 Q 1340.00 236.00 1340.00 246.00 L 1340.00 318.00 Q 1340.00 328.00 1331.33 332.98 L 1268.67 369.02 Q 1260.00 374.00 1251.33 369.02 L 1188.67 332.98 Q 1180.00 328.00 1180.00 318.00 L 1180.00 246.00 Q 1180.00 236.00 1188.67 231.02 Z" fill="none" stroke="#E5EEF9" stroke-width="2" opacity="0.45"/>
<path d="M 1251.33 364.98 Q 1260.00 360.00 1268.67 364.98 L 1331.33 401.02 Q 1340.00 406.00 1340.00 416.00 L 1340.00 488.00 Q 1340.00 498.00 1331.33 502.98 L 1268.67 539.02 Q 1260.00 544.00 1251.33 539.02 L 1188.67 502.98 Q 1180.00 498.00 1180.00 488.00 L 1180.00 416.00 Q 1180.00 406.00 1188.67 401.02 Z" fill="none" stroke="#E5EEF9" stroke-width="2" opacity="0.45"/>
<path d="M 1251.33 534.98 Q 1260.00 530.00 1268.67 534.98 L 1331.33 571.02 Q 1340.00 576.00 1340.00 586.00 L 1340.00 658.00 Q 1340.00 668.00 1331.33 672.98 L 1268.67 709.02 Q 1260.00 714.00 1251.33 709.02 L 1188.67 672.98 Q 1180.00 668.00 1180.00 658.00 L 1180.00 586.00 Q 1180.00 576.00 1188.67 571.02 Z" fill="none" stroke="#E5EEF9" stroke-width="2" opacity="0.45"/></g>
  <g transform="translate(80 70) scale(0.48)"><g id="mark"><defs><clipPath id="clip-hex-local"><path d="M 453.12 108.01 Q 512.00 74.00 570.88 108.01 L 801.12 240.99 Q 860.00 275.00 860.00 343.00 L 860.00 681.00 Q 860.00 749.00 801.12 783.01 L 570.88 915.99 Q 512.00 950.00 453.12 915.99 L 222.88 783.01 Q 164.00 749.00 164.00 681.00 L 164.00 343.00 Q 164.00 275.00 222.88 240.99 Z"/></clipPath></defs><g clip-path="url(#clip-hex-local)"><rect x="0" y="0" width="512" height="1024" fill="#007FFF"/><rect x="512" y="0" width="512" height="1024" fill="#FFED00"/></g><path d="M 512 224 C 546 363 630 442 792 512 C 630 582 546 661 512 800 C 478 661 394 582 232 512 C 394 442 478 363 512 224 Z" fill="#FFFFFF"/></g></g>
  <text x="610" y="235" font-family="Inter Display, Lato, Inter, Segoe UI, Arial, sans-serif" font-size="118" font-weight="900" letter-spacing="18" fill="#05070A">ISKRA</text>
  <text x="615" y="320" font-family="Inter Display, Lato, Inter, Segoe UI, Arial, sans-serif" font-size="34" font-weight="800" letter-spacing="5" fill="#007FFF">SAFE FLASHING FOR DEVICES</text>
  <text x="615" y="380" font-family="Inter Display, Lato, Inter, Segoe UI, Arial, sans-serif" font-size="26" fill="#4B5565">Operator-friendly flashing for embedded hardware.</text>
  <g transform="translate(615,460)">
    <rect x="0" y="0" width="500" height="58" rx="18" fill="#F0F6FF"/>
    <circle cx="36" cy="29" r="9" fill="#24C26A"/>
    <text x="60" y="38" font-family="Inter Display, Lato, Inter, Segoe UI, Arial, sans-serif" font-size="25" fill="#05070A">Plug in · Flash · Done</text>
  </g>
</svg>