<svg xmlns="http://www.w3.org/2000/svg" viewBox="0 0 1024 1024" role="img" aria-label="Iskra simplified symbol">
  <title>Iskra simplified symbol</title>
  <defs><clipPath id="clip-hex"><path d="M 453.12 108.01 Q 512.00 74.00 570.88 108.01 L 801.12 240.99 Q 860.00 275.00 860.00 343.00 L 860.00 681.00 Q 860.00 749.00 801.12 783.01 L 570.88 915.99 Q 512.00 950.00 453.12 915.99 L 222.88 783.01 Q 164.00 749.00 164.00 681.00 L 164.00 343.00 Q 164.00 275.00 222.88 240.99 Z"/></clipPath></defs>
  <g clip-path="url(#clip-hex)">
    <rect x="0" y="0" width="512" height="1024" fill="#007FFF"/>
    <rect x="512" y="0" width="512" height="1024" fill="#FFED00"/>
  </g>
  <path d="M512 250 C542 374 620 450 760 512 C620 574 542 650 512 774 C482 650 404 574 264 512 C404 450 482 374 512 250 Z" fill="#FFFFFF"/>
</svg>