<svg xmlns="http://www.w3.org/2000/svg" viewBox="0 0 1400 900" role="img" aria-label="Iskra UI mockup">
  <rect width="1400" height="900" fill="#F6F8FB"/>
  <text x="80" y="96" font-family="Inter Display, Lato, Inter, Segoe UI, Arial, sans-serif" font-size="28" font-weight="700" fill="#05070A">Iskra Operator UI concept</text>
  <rect x="80" y="140" width="1240" height="680" rx="28" fill="#FFFFFF" stroke="#DDE6F3" stroke-width="2"/>
  <rect x="80" y="140" width="300" height="680" rx="28" fill="#05070A"/>
  <g transform="translate(116,170) scale(0.065)">
    <g id="mark">
      <defs><clipPath id="clip-hex-local"><path d="M 453.12 108.01 Q 512.00 74.00 570.88 108.01 L 801.12 240.99 Q 860.00 275.00 860.00 343.00 L 860.00 681.00 Q 860.00 749.00 801.12 783.01 L 570.88 915.99 Q 512.00 950.00 453.12 915.99 L 222.88 783.01 Q 164.00 749.00 164.00 681.00 L 164.00 343.00 Q 164.00 275.00 222.88 240.99 Z"/></clipPath></defs>
      <g clip-path="url(#clip-hex-local)">
        <rect x="0" y="0" width="512" height="1024" fill="#007FFF"/>
        <rect x="512" y="0" width="512" height="1024" fill="#FFED00"/>
      </g>
      <path d="M 512 224 C 546 363 630 442 792 512 C 630 582 546 661 512 800 C 478 661 394 582 232 512 C 394 442 478 363 512 224 Z" fill="#05070A"/>
    </g>
  </g>
  <text x="190" y="226" font-family="Inter Display, Lato, Inter, Segoe UI, Arial, sans-serif" font-size="38" font-weight="900" letter-spacing="6" fill="#FFFFFF">ISKRA</text>
  <g font-family="Inter Display, Lato, Inter, Segoe UI, Arial, sans-serif" font-size="24" fill="#FFFFFF">
    <rect x="112" y="290" width="230" height="58" rx="14" fill="#142033"/>
    <text x="166" y="328">Flash</text>
    <text x="116" y="410" fill="#AEB8C8">Devices</text>
    <text x="116" y="470" fill="#AEB8C8">History</text>
    <text x="116" y="530" fill="#AEB8C8">Settings</text>
  </g>
  <circle cx="116" cy="770" r="8" fill="#24C26A"/>
  <text x="138" y="779" font-family="Inter Display, Lato, Inter, Segoe UI, Arial, sans-serif" font-size="19" fill="#AEB8C8">Status</text>
  <text x="224" y="779" font-family="Inter Display, Lato, Inter, Segoe UI, Arial, sans-serif" font-size="19" fill="#24C26A">Ready</text>

  <g transform="translate(715,205) scale(0.18)">
    <g id="mark">
      <defs><clipPath id="clip-hex-local"><path d="M 453.12 108.01 Q 512.00 74.00 570.88 108.01 L 801.12 240.99 Q 860.00 275.00 860.00 343.00 L 860.00 681.00 Q 860.00 749.00 801.12 783.01 L 570.88 915.99 Q 512.00 950.00 453.12 915.99 L 222.88 783.01 Q 164.00 749.00 164.00 681.00 L 164.00 343.00 Q 164.00 275.00 222.88 240.99 Z"/></clipPath></defs>
      <g clip-path="url(#clip-hex-local)">
        <rect x="0" y="0" width="512" height="1024" fill="#007FFF"/>
        <rect x="512" y="0" width="512" height="1024" fill="#FFED00"/>
      </g>
      <path d="M 512 224 C 546 363 630 442 792 512 C 630 582 546 661 512 800 C 478 661 394 582 232 512 C 394 442 478 363 512 224 Z" fill="#FFFFFF"/>
    </g>
  </g>
  <rect x="515" y="435" width="590" height="88" rx="22" fill="#007FFF"/>
  <text x="643" y="490" font-family="Inter Display, Lato, Inter, Segoe UI, Arial, sans-serif" font-size="35" font-weight="800" letter-spacing="2" fill="#FFFFFF">FLASH DEVICE</text>
  <path d="M610 463 L592 495 H611 L601 522 L632 482 H613 Z" fill="#FFFFFF"/>

  <g font-family="Inter Display, Lato, Inter, Segoe UI, Arial, sans-serif" font-size="25" fill="#05070A">
    <rect x="515" y="560" width="590" height="58" rx="14" fill="#FFFFFF" stroke="#DDE6F3"/>
    <circle cx="550" cy="589" r="12" fill="#24C26A"/>
    <text x="588" y="599">Probe detected</text>
    <circle cx="1070" cy="589" r="13" fill="none" stroke="#24C26A" stroke-width="3"/>
    <path d="M1063 588 L1069 595 L1079 581" fill="none" stroke="#24C26A" stroke-width="4" stroke-linecap="round" stroke-linejoin="round"/>

    <rect x="515" y="637" width="590" height="58" rx="14" fill="#FFFFFF" stroke="#DDE6F3"/>
    <circle cx="550" cy="666" r="12" fill="#24C26A"/>
    <text x="588" y="676">Device connected</text>
    <circle cx="1070" cy="666" r="13" fill="none" stroke="#24C26A" stroke-width="3"/>
    <path d="M1063 665 L1069 672 L1079 658" fill="none" stroke="#24C26A" stroke-width="4" stroke-linecap="round" stroke-linejoin="round"/>

    <rect x="515" y="714" width="590" height="58" rx="14" fill="#FFFFFF" stroke="#DDE6F3"/>
    <circle cx="550" cy="743" r="12" fill="#24C26A"/>
    <text x="588" y="753">Firmware verified</text>
    <circle cx="1070" cy="743" r="13" fill="none" stroke="#24C26A" stroke-width="3"/>
    <path d="M1063 742 L1069 749 L1079 735" fill="none" stroke="#24C26A" stroke-width="4" stroke-linecap="round" stroke-linejoin="round"/>
  </g>
</svg>