<svg xmlns="http://www.w3.org/2000/svg" viewBox="0 0 1024 1024" role="img" aria-label="Iskra app icon">
  <title>Iskra app icon</title>
  <defs>
    <clipPath id="clip-hex"><path d="M 453.12 108.01 Q 512.00 74.00 570.88 108.01 L 801.12 240.99 Q 860.00 275.00 860.00 343.00 L 860.00 681.00 Q 860.00 749.00 801.12 783.01 L 570.88 915.99 Q 512.00 950.00 453.12 915.99 L 222.88 783.01 Q 164.00 749.00 164.00 681.00 L 164.00 343.00 Q 164.00 275.00 222.88 240.99 Z"/></clipPath>
    <linearGradient id="bg" x1="0" y1="0" x2="1" y2="1">
      <stop offset="0" stop-color="#FFFFFF"/>
      <stop offset="1" stop-color="#EAF3FF"/>
    </linearGradient>
  </defs>
  <rect x="40" y="40" width="944" height="944" rx="206" fill="url(#bg)"/>
  <g id="mark" transform="translate(122 58) scale(0.76)">
    <g id="split-hex" clip-path="url(#clip-hex)">
      <rect x="0" y="0" width="512" height="1024" fill="#007FFF"/>
      <rect x="512" y="0" width="512" height="1024" fill="#FFED00"/>
    </g>
    <path d="M 512 224 C 546 363 630 442 792 512 C 630 582 546 661 512 800 C 478 661 394 582 232 512 C 394 442 478 363 512 224 Z" fill="#F8FBFF"/>
  </g>
</svg>